<svg width="101" height="107" viewBox="0 0 101 107" fill="none" xmlns="http://www.w3.org/2000/svg">
    <g filter="url(#filter0_d_226_217)">
        <path
            d="M7 38C7 26.9543 15.9543 18 27 18H60C71.0457 18 80 26.9543 80 38V69C80 80.0457 71.0457 89 60 89H27C15.9543 89 7 80.0457 7 69V38Z"
            fill="#2F80ED" />
        <path
            d="M7 38C7 26.9543 15.9543 18 27 18H60C71.0457 18 80 26.9543 80 38V69C80 80.0457 71.0457 89 60 89H27C15.9543 89 7 80.0457 7 69V38Z"
            fill="#2EBC56" fill-opacity="0.24" />
        <path
            d="M7.21394 71.9357C7.11952 71.2938 7.05559 70.642 7.02368 69.9818L9.52076 69.8611C9.50698 69.576 9.5 69.2889 9.5 69V68.0312H7V66.0938H9.5V64.1562H7V62.2188H9.5V60.2812H7V58.3438H9.5V56.4062H7V54.4688H9.5V52.5312H7V50.5938H9.5V48.6562H7V46.7187H9.5V44.7812H7V42.8437H9.5V40.9062H7V38.9687H9.5V38C9.5 37.7111 9.50698 37.424 9.52076 37.1389L7.02368 37.0182C7.05559 36.358 7.11952 35.7062 7.21394 35.0643L9.68732 35.4281C9.7713 34.8572 9.88282 34.2955 10.0204 33.7443L7.59493 33.1387C7.75447 32.4998 7.94474 31.873 8.16408 31.2601L10.5179 32.1024C10.7115 31.5614 10.9311 31.0325 11.1752 30.5174L8.91594 29.447C9.19709 28.8535 9.50659 28.2762 9.84269 27.7166L11.9858 29.0039C12.2813 28.5119 12.6004 28.0355 12.9415 27.5763L10.9347 26.0855C11.3254 25.5595 11.7414 25.0533 12.1808 24.5688L14.0327 26.2483C14.4178 25.8236 14.8236 25.4178 15.2483 25.0327L13.5688 23.1808C14.0533 22.7414 14.5595 22.3254 15.0855 21.9347L16.5763 23.9415C17.0355 23.6004 17.5119 23.2813 18.0039 22.9858L16.7166 20.8427C17.2762 20.5066 17.8535 20.1971 18.447 19.9159L19.5174 22.1752C20.0325 21.9311 20.5614 21.7115 21.1024 21.5179L20.2601 19.1641C20.873 18.9447 21.4998 18.7545 22.1387 18.5949L22.7443 21.0205C23.2955 20.8828 23.8572 20.7713 24.4281 20.6873L24.0643 18.2139C24.7062 18.1195 25.358 18.0556 26.0182 18.0237L26.1389 20.5208C26.424 20.507 26.7111 20.5 27 20.5H28.0312V18H30.0937V20.5H32.1562V18H34.2187V20.5H36.2812V18H38.3437V20.5H40.4062V18H42.4688V20.5H44.5312V18H46.5937V20.5H48.6562V18H50.7187V20.5H52.7812V18H54.8437V20.5H56.9062V18H58.9687V20.5H60C60.2889 20.5 60.576 20.507 60.8611 20.5208L60.9818 18.0237C61.642 18.0556 62.2938 18.1195 62.9357 18.2139L62.5719 20.6873C63.1428 20.7713 63.7045 20.8828 64.2556 21.0204L64.8613 18.5949C65.5002 18.7545 66.127 18.9447 66.7399 19.1641L65.8975 21.5179C66.4386 21.7115 66.9675 21.9311 67.4826 22.1752L68.553 19.9159C69.1465 20.1971 69.7238 20.5066 70.2834 20.8427L68.9961 22.9858C69.4881 23.2813 69.9645 23.6004 70.4237 23.9415L71.9145 21.9347C72.4405 22.3254 72.9467 22.7414 73.4312 23.1808L71.7517 25.0327C72.1764 25.4178 72.5822 25.8236 72.9673 26.2483L74.8192 24.5688C75.2586 25.0533 75.6746 25.5595 76.0653 26.0855L74.0585 27.5763C74.3996 28.0355 74.7187 28.5119 75.0142 29.0039L77.1573 27.7166C77.4934 28.2762 77.8029 28.8535 78.0841 29.447L75.8248 30.5174C76.0689 31.0325 76.2885 31.5614 76.4821 32.1024L78.8359 31.2601C79.0553 31.873 79.2455 32.4998 79.4051 33.1387L76.9796 33.7443C77.1172 34.2955 77.2287 34.8572 77.3127 35.4281L79.7861 35.0643C79.8805 35.7062 79.9444 36.358 79.9763 37.0182L77.4792 37.1389C77.493 37.424 77.5 37.7111 77.5 38V38.9688H80V40.9062H77.5V42.8438H80V44.7812H77.5V46.7188H80V48.6562H77.5V50.5938H80V52.5312H77.5V54.4688H80V56.4062H77.5V58.3438H80V60.2812H77.5V62.2188H80V64.1562H77.5V66.0938H80V68.0312H77.5V69C77.5 69.2889 77.493 69.576 77.4792 69.8611L79.9763 69.9818C79.9444 70.642 79.8805 71.2938 79.7861 71.9357L77.3127 71.5719C77.2287 72.1428 77.1172 72.7045 76.9796 73.2556L79.4051 73.8613C79.2455 74.5002 79.0553 75.127 78.8359 75.7399L76.4821 74.8976C76.2885 75.4386 76.0689 75.9675 75.8248 76.4826L78.0841 77.553C77.8029 78.1465 77.4934 78.7238 77.1573 79.2834L75.0142 77.9961C74.7187 78.4881 74.3996 78.9645 74.0585 79.4237L76.0653 80.9145C75.6746 81.4405 75.2586 81.9467 74.8192 82.4312L72.9673 80.7517C72.5822 81.1764 72.1765 81.5822 71.7517 81.9673L73.4312 83.8192C72.9467 84.2586 72.4405 84.6746 71.9145 85.0653L70.4237 83.0585C69.9645 83.3996 69.4881 83.7187 68.9961 84.0142L70.2834 86.1573C69.7238 86.4934 69.1465 86.8029 68.553 87.0841L67.4826 84.8248C66.9675 85.0689 66.4386 85.2885 65.8976 85.4821L66.7399 87.8359C66.127 88.0553 65.5002 88.2455 64.8613 88.4051L64.2557 85.9796C63.7045 86.1172 63.1428 86.2287 62.5719 86.3127L62.9357 88.7861C62.2938 88.8805 61.642 88.9444 60.9818 88.9763L60.8611 86.4792C60.576 86.493 60.2889 86.5 60 86.5H58.9688V89H56.9062V86.5H54.8438V89H52.7812V86.5H50.7188V89H48.6562V86.5H46.5938V89H44.5312V86.5H42.4688V89H40.4062V86.5H38.3438V89H36.2813V86.5H34.2188V89H32.1563V86.5H30.0938V89H28.0313V86.5H27C26.7111 86.5 26.424 86.493 26.1389 86.4792L26.0182 88.9763C25.358 88.9444 24.7062 88.8805 24.0643 88.7861L24.4281 86.3127C23.8572 86.2287 23.2955 86.1172 22.7444 85.9796L22.1387 88.4051C21.4998 88.2455 20.873 88.0553 20.2601 87.8359L21.1025 85.4821C20.5614 85.2885 20.0325 85.0689 19.5174 84.8248L18.447 87.0841C17.8536 86.8029 17.2762 86.4934 16.7166 86.1573L18.0039 84.0142C17.5119 83.7187 17.0355 83.3996 16.5763 83.0585L15.0855 85.0653C14.5595 84.6746 14.0533 84.2586 13.5688 83.8192L15.2483 81.9673C14.8236 81.5822 14.4178 81.1764 14.0327 80.7517L12.1808 82.4312C11.7414 81.9467 11.3254 81.4405 10.9347 80.9145L12.9415 79.4237C12.6004 78.9645 12.2813 78.4881 11.9858 77.9961L9.84269 79.2834C9.50659 78.7238 9.19709 78.1465 8.91594 77.553L11.1752 76.4826C10.9311 75.9675 10.7115 75.4386 10.5179 74.8976L8.16408 75.7399C7.94475 75.127 7.75447 74.5002 7.59493 73.8613L10.0205 73.2557C9.88282 72.7045 9.7713 72.1428 9.68732 71.5719L7.21394 71.9357Z"
            stroke="#F9EEEE" stroke-opacity="0.54" stroke-width="5" stroke-dasharray="2 2" />
    </g>
    <g filter="url(#filter1_di_226_217)">
        <rect x="22" y="32" width="42" height="42" rx="20" fill="#D9D9D9" />
    </g>
    <g filter="url(#filter2_d_226_217)">
        <path
            d="M33.1705 66V39.8182H36.3409V52.8068H36.6477L48.4091 39.8182H52.5511L41.5568 51.6307L52.5511 66H48.7159L39.6136 53.8295L36.3409 57.5114V66H33.1705Z"
            fill="#EB5757" />
    </g>
    <g filter="url(#filter3_d_226_217)">
        <path
            d="M55.6705 40V66.1818H52.5V53.1932H52.1932L40.4319 66.1818H36.2898L47.2841 54.3693L36.2898 40H40.125L49.2273 52.1705L52.5 48.4886V40H55.6705Z"
            fill="#2F80ED" />
    </g>
    <defs>
        <filter id="filter0_d_226_217" x="3" y="18" width="81" height="79"
            filterUnits="userSpaceOnUse" color-interpolation-filters="sRGB">
            <feFlood flood-opacity="0" result="BackgroundImageFix" />
            <feColorMatrix in="SourceAlpha" type="matrix"
                values="0 0 0 0 0 0 0 0 0 0 0 0 0 0 0 0 0 0 127 0" result="hardAlpha" />
            <feOffset dy="4" />
            <feGaussianBlur stdDeviation="2" />
            <feComposite in2="hardAlpha" operator="out" />
            <feColorMatrix type="matrix" values="0 0 0 0 0 0 0 0 0 0 0 0 0 0 0 0 0 0 0.25 0" />
            <feBlend mode="normal" in2="BackgroundImageFix" result="effect1_dropShadow_226_217" />
            <feBlend mode="normal" in="SourceGraphic" in2="effect1_dropShadow_226_217"
                result="shape" />
        </filter>
        <filter id="filter1_di_226_217" x="18" y="32" width="50" height="50"
            filterUnits="userSpaceOnUse" color-interpolation-filters="sRGB">
            <feFlood flood-opacity="0" result="BackgroundImageFix" />
            <feColorMatrix in="SourceAlpha" type="matrix"
                values="0 0 0 0 0 0 0 0 0 0 0 0 0 0 0 0 0 0 127 0" result="hardAlpha" />
            <feOffset dy="4" />
            <feGaussianBlur stdDeviation="2" />
            <feComposite in2="hardAlpha" operator="out" />
            <feColorMatrix type="matrix" values="0 0 0 0 0 0 0 0 0 0 0 0 0 0 0 0 0 0 0.25 0" />
            <feBlend mode="normal" in2="BackgroundImageFix" result="effect1_dropShadow_226_217" />
            <feBlend mode="normal" in="SourceGraphic" in2="effect1_dropShadow_226_217"
                result="shape" />
            <feColorMatrix in="SourceAlpha" type="matrix"
                values="0 0 0 0 0 0 0 0 0 0 0 0 0 0 0 0 0 0 127 0" result="hardAlpha" />
            <feOffset dy="4" />
            <feGaussianBlur stdDeviation="2" />
            <feComposite in2="hardAlpha" operator="arithmetic" k2="-1" k3="1" />
            <feColorMatrix type="matrix" values="0 0 0 0 0 0 0 0 0 0 0 0 0 0 0 0 0 0 0.25 0" />
            <feBlend mode="normal" in2="shape" result="effect2_innerShadow_226_217" />
        </filter>
        <filter id="filter2_d_226_217" x="29.1704" y="39.8182" width="27.3807" height="34.1818"
            filterUnits="userSpaceOnUse" color-interpolation-filters="sRGB">
            <feFlood flood-opacity="0" result="BackgroundImageFix" />
            <feColorMatrix in="SourceAlpha" type="matrix"
                values="0 0 0 0 0 0 0 0 0 0 0 0 0 0 0 0 0 0 127 0" result="hardAlpha" />
            <feOffset dy="4" />
            <feGaussianBlur stdDeviation="2" />
            <feComposite in2="hardAlpha" operator="out" />
            <feColorMatrix type="matrix" values="0 0 0 0 0 0 0 0 0 0 0 0 0 0 0 0 0 0 0.25 0" />
            <feBlend mode="normal" in2="BackgroundImageFix" result="effect1_dropShadow_226_217" />
            <feBlend mode="normal" in="SourceGraphic" in2="effect1_dropShadow_226_217"
                result="shape" />
        </filter>
        <filter id="filter3_d_226_217" x="32.2898" y="40" width="27.3807" height="34.1818"
            filterUnits="userSpaceOnUse" color-interpolation-filters="sRGB">
            <feFlood flood-opacity="0" result="BackgroundImageFix" />
            <feColorMatrix in="SourceAlpha" type="matrix"
                values="0 0 0 0 0 0 0 0 0 0 0 0 0 0 0 0 0 0 127 0" result="hardAlpha" />
            <feOffset dy="4" />
            <feGaussianBlur stdDeviation="2" />
            <feComposite in2="hardAlpha" operator="out" />
            <feColorMatrix type="matrix" values="0 0 0 0 0 0 0 0 0 0 0 0 0 0 0 0 0 0 0.25 0" />
            <feBlend mode="normal" in2="BackgroundImageFix" result="effect1_dropShadow_226_217" />
            <feBlend mode="normal" in="SourceGraphic" in2="effect1_dropShadow_226_217"
                result="shape" />
        </filter>
    </defs>
</svg>
    